<svg xmlns="http://www.w3.org/2000/svg" width="21.464" height="26.845" viewBox="0 0 21.464 26.845">
  <g id="Icon_ionic-ios-notifications" data-name="Icon ionic-ios-notifications" transform="translate(0)">
    <path id="Path_179" data-name="Path 179" d="M17.838,31.892c2.087,0,3.227-1.476,3.227-3.556H14.6C14.6,30.416,15.745,31.892,17.838,31.892Z" transform="translate(-7.12 -5.047)" fill="#fff"/>
    <path id="Path_180" data-name="Path 180" d="M27.953,23.811c-1.033-1.362-3.066-2.16-3.066-8.259,0-6.26-2.764-8.776-5.341-9.38-.242-.06-.416-.141-.416-.4V5.581a1.637,1.637,0,1,0-3.274,0v.195c0,.248-.174.335-.416.4-2.583.611-5.341,3.12-5.341,9.38,0,6.1-2.033,6.891-3.066,8.259A1.332,1.332,0,0,0,8.1,25.944H26.893A1.332,1.332,0,0,0,27.953,23.811Z" transform="translate(-6.761 -3.93)" fill="#fff"/>
  </g>
</svg>
