<svg id="Group_1056" data-name="Group 1056" xmlns="http://www.w3.org/2000/svg" width="35.547" height="24.3" viewBox="0 0 35.547 24.3">
  <g id="Group_1057" data-name="Group 1057" transform="translate(0 0.814)">
    <g id="Group_1056-2" data-name="Group 1056">
      <path id="Path_326" data-name="Path 326" d="M5.4,113.711A15.694,15.694,0,0,1,5.4,94.4a1.041,1.041,0,1,0-1.641-1.282,17.777,17.777,0,0,0,0,21.872A1.041,1.041,0,0,0,5.4,113.711Z" transform="translate(0 -92.721)" fill="#fff"/>
    </g>
  </g>
  <g id="Group_1059" data-name="Group 1059" transform="translate(29.923 0.814)">
    <g id="Group_1058" data-name="Group 1058">
      <path id="Path_327" data-name="Path 327" d="M432.861,93.123a1.041,1.041,0,1,0-1.641,1.282,15.695,15.695,0,0,1,0,19.307,1.041,1.041,0,1,0,1.641,1.282,17.777,17.777,0,0,0,0-21.872Z" transform="translate(-430.999 -92.722)" fill="#fff"/>
    </g>
  </g>
  <g id="Group_1061" data-name="Group 1061" transform="translate(5.624 0)">
    <g id="Group_1060" data-name="Group 1060">
      <path id="Path_328" data-name="Path 328" d="M93.15,81A12.15,12.15,0,1,0,105.3,93.15,12.163,12.163,0,0,0,93.15,81Zm-2.206,2.327a10.091,10.091,0,0,1,4.412,0,27.282,27.282,0,0,1,.767,3.647c-1.987-.043-3.956-.043-5.945,0A27.275,27.275,0,0,1,90.944,83.327Zm-2.373.859c-.2.893-.374,1.848-.51,2.851q-1.53.058-3.017.151A10.139,10.139,0,0,1,88.571,84.186ZM83.825,96.941a10.059,10.059,0,0,1,0-7.583c1.307-.1,2.645-.173,4.007-.228a48.993,48.993,0,0,0,0,8.039Q85.788,97.087,83.825,96.941Zm1.219,2.171q1.487.093,3.017.151c.137,1,.307,1.959.511,2.851A10.137,10.137,0,0,1,85.044,99.112Zm10.312,3.861a10.091,10.091,0,0,1-4.412,0,27.28,27.28,0,0,1-.767-3.647c1.987.043,3.956.043,5.945,0A27.278,27.278,0,0,1,95.356,102.973Zm1.012-5.736c-2.1.05-4.277.052-6.437,0a45.915,45.915,0,0,1,0-8.174c2.1-.05,4.277-.052,6.437,0A45.908,45.908,0,0,1,96.368,97.237Zm4.888-10.049q-1.487-.093-3.017-.151c-.137-1-.307-1.959-.511-2.851A10.137,10.137,0,0,1,101.256,87.188Zm-3.528,14.926c.2-.893.374-1.848.511-2.851q1.53-.058,3.017-.151A10.138,10.138,0,0,1,97.729,102.114Zm.74-4.945a48.992,48.992,0,0,0,0-8.039q2.044.082,4.007.228a10.06,10.06,0,0,1,0,7.583Q100.515,97.087,98.468,97.169Z" transform="translate(-81 -81)" fill="#fff"/>
    </g>
  </g>
</svg>
